<svg width="1440" height="127" viewBox="0 0 1440 127" fill="none" xmlns="http://www.w3.org/2000/svg">
<path d="M0 10.5C6.5 42.5 36.5 58 80.5 58C108.328 58 133.753 51.5301 153.181 40.8514C192.272 77.1421 258.447 101 333.5 101C386.26 101 434.633 89.2102 472.294 69.5995C492.296 82.2026 519.95 90 550.5 90C596.701 90 636.28 72.1664 652.784 46.8467C684.085 62.078 722.062 71 763 71C785.829 71 807.737 68.2255 828.08 63.1297C846.381 85.6119 883.583 101 926.5 101C978.556 101 1022.2 78.3599 1033.91 47.881C1054.32 51.8578 1076.01 54 1098.5 54C1126.52 54 1153.3 50.6753 1177.89 44.6203C1176.65 48.794 1176 53.0992 1176 57.5C1176 95.8838 1225.47 127 1286.5 127C1347.53 127 1397 95.8838 1397 57.5C1397 54.8255 1396.76 52.1862 1396.29 49.5904C1396.29 49.5904 1403.5 57.5 1416 58.5C1439 60.34 1440 35.5 1440 12.5V0H0V10.5Z" fill="#E2E8F0"/>
</svg>
