{
    "asset" : {
        "generator" : "Khronos glTF Blender I/O v1.7.33",
        "version" : "2.0"
    },
    "scene" : 0,
    "scenes" : [
        {
            "name" : "Scene",
            "nodes" : [
                7
            ]
        }
    ],
    "nodes" : [
        {
            "mesh" : 0,
            "name" : "Text",
            "rotation" : [
                0,
                1,
                0,
                7.776651840389094e-16
            ],
            "scale" : [
                0.2605128288269043,
                6.456986904144287,
                0.43040910363197327
            ],
            "translation" : [
                0.5472226738929749,
                -0.8372892141342163,
                1.3415166139602661
            ]
        },
        {
            "children" : [
                0
            ],
            "mesh" : 1,
            "name" : "display"
        },
        {
            "mesh" : 2,
            "name" : "rotationBar",
            "rotation" : [
                0,
                0,
                -0.7071064710617065,
                0.7071071863174438
            ],
            "scale" : [
                0.6456900835037231,
                0.03575834631919861,
                0.026050928980112076
            ]
        },
        {
            "children" : [
                1,
                2
            ],
            "mesh" : 3,
            "name" : "displayFrame",
            "rotation" : [
                0,
                0,
                -1,
                4.371138828673793e-08
            ],
            "scale" : [
                2.910083532333374,
                0.11740987002849579,
                1.7613801956176758
            ],
            "translation" : [
                0.0072214920073747635,
                0.055096060037612915,
                -1.747658610343933
            ]
        },
        {
            "mesh" : 4,
            "name" : "keys",
            "scale" : [
                1,
                0.7319796085357666,
                1
            ],
            "translation" : [
                0.5769199132919312,
                -0.30725860595703125,
                -0.6058389544487
            ]
        },
        {
            "mesh" : 5,
            "name" : "touchpad"
        },
        {
            "children" : [
                4,
                5
            ],
            "mesh" : 6,
            "name" : "keyboard",
            "rotation" : [
                0,
                0,
                -1,
                0
            ],
            "scale" : [
                2.910083532333374,
                0.11740988492965698,
                1.7613801956176758
            ]
        },
        {
            "children" : [
                3,
                6
            ],
            "name" : "Empty",
            "rotation" : [
                0.12186934798955917,
                0,
                0,
                0.9925461411476135
            ],
            "scale" : [
                0.5677366256713867,
                0.5677366256713867,
                0.5677366256713867
            ]
        }
    ],
    "animations" : [
        {
            "channels" : [
                {
                    "sampler" : 0,
                    "target" : {
                        "node" : 3,
                        "path" : "rotation"
                    }
                }
            ],
            "name" : "displayAction",
            "samplers" : [
                {
                    "input" : 28,
                    "interpolation" : "LINEAR",
                    "output" : 29
                }
            ]
        },
        {
            "channels" : [
                {
                    "sampler" : 0,
                    "target" : {
                        "node" : 7,
                        "path" : "rotation"
                    }
                }
            ],
            "name" : "EmptyAction",
            "samplers" : [
                {
                    "input" : 30,
                    "interpolation" : "LINEAR",
                    "output" : 31
                }
            ]
        }
    ],
    "materials" : [
        {
            "doubleSided" : true,
            "name" : "text",
            "pbrMetallicRoughness" : {}
        },
        {
            "doubleSided" : true,
            "emissiveFactor" : [
                0.6038275361061096,
                0.742855966091156,
                1
            ],
            "name" : "pc-display",
            "pbrMetallicRoughness" : {}
        },
        {
            "doubleSided" : true,
            "name" : "pc-body",
            "pbrMetallicRoughness" : {
                "baseColorFactor" : [
                    0.14750029146671295,
                    0.3470240831375122,
                    0.8000000715255737,
                    1
                ],
                "metallicFactor" : 0,
                "roughnessFactor" : 0.4000000059604645
            }
        },
        {
            "doubleSided" : true,
            "name" : "pc-keyboard",
            "pbrMetallicRoughness" : {
                "baseColorFactor" : [
                    0.2814156711101532,
                    0.6038219928741455,
                    0.5041525959968567,
                    1
                ],
                "metallicFactor" : 0,
                "roughnessFactor" : 0.5
            }
        },
        {
            "doubleSided" : true,
            "name" : "pc-touchpad",
            "pbrMetallicRoughness" : {
                "baseColorFactor" : [
                    0.2769881784915924,
                    0.5010082125663757,
                    0.9404000043869019,
                    1
                ],
                "metallicFactor" : 0,
                "roughnessFactor" : 0.5
            }
        }
    ],
    "meshes" : [
        {
            "name" : "Text",
            "primitives" : [
                {
                    "attributes" : {
                        "POSITION" : 0,
                        "NORMAL" : 1,
                        "TEXCOORD_0" : 2
                    },
                    "indices" : 3,
                    "material" : 0
                }
            ]
        },
        {
            "name" : "Cube.006",
            "primitives" : [
                {
                    "attributes" : {
                        "POSITION" : 4,
                        "NORMAL" : 5,
                        "TEXCOORD_0" : 6
                    },
                    "indices" : 7,
                    "material" : 1
                }
            ]
        },
        {
            "name" : "Cube.003",
            "primitives" : [
                {
                    "attributes" : {
                        "POSITION" : 8,
                        "NORMAL" : 9,
                        "TEXCOORD_0" : 10
                    },
                    "indices" : 11,
                    "material" : 2
                }
            ]
        },
        {
            "name" : "Cube.001",
            "primitives" : [
                {
                    "attributes" : {
                        "POSITION" : 12,
                        "NORMAL" : 13,
                        "TEXCOORD_0" : 14
                    },
                    "indices" : 15,
                    "material" : 2
                }
            ]
        },
        {
            "name" : "Cube.002",
            "primitives" : [
                {
                    "attributes" : {
                        "POSITION" : 16,
                        "NORMAL" : 17,
                        "TEXCOORD_0" : 18
                    },
                    "indices" : 19,
                    "material" : 3
                }
            ]
        },
        {
            "name" : "Cube.007",
            "primitives" : [
                {
                    "attributes" : {
                        "POSITION" : 20,
                        "NORMAL" : 21,
                        "TEXCOORD_0" : 22
                    },
                    "indices" : 23,
                    "material" : 4
                }
            ]
        },
        {
            "name" : "Cube",
            "primitives" : [
                {
                    "attributes" : {
                        "POSITION" : 24,
                        "NORMAL" : 25,
                        "TEXCOORD_0" : 26
                    },
                    "indices" : 27,
                    "material" : 2
                }
            ]
        }
    ],
    "accessors" : [
        {
            "bufferView" : 0,
            "componentType" : 5126,
            "count" : 7993,
            "max" : [
                4.22683048248291,
                0.03535148501396179,
                2.007244110107422
            ],
            "min" : [
                0.022981882095336914,
                0.035350993275642395,
                -0.3984513282775879
            ],
            "type" : "VEC3"
        },
        {
            "bufferView" : 1,
            "componentType" : 5126,
            "count" : 7993,
            "type" : "VEC3"
        },
        {
            "bufferView" : 2,
            "componentType" : 5126,
            "count" : 7993,
            "type" : "VEC2"
        },
        {
            "bufferView" : 3,
            "componentType" : 5123,
            "count" : 8079,
            "type" : "SCALAR"
        },
        {
            "bufferView" : 4,
            "componentType" : 5126,
            "count" : 96,
            "max" : [
                0.8091999888420105,
                -0.6490249633789062,
                1.8014098405838013
            ],
            "min" : [
                -0.8091999888420105,
                -0.6590254306793213,
                0.18300987780094147
            ],
            "type" : "VEC3"
        },
        {
            "bufferView" : 5,
            "componentType" : 5126,
            "count" : 96,
            "type" : "VEC3"
        },
        {
            "bufferView" : 6,
            "componentType" : 5126,
            "count" : 96,
            "type" : "VEC2"
        },
        {
            "bufferView" : 7,
            "componentType" : 5123,
            "count" : 180,
            "type" : "SCALAR"
        },
        {
            "bufferView" : 8,
            "componentType" : 5126,
            "count" : 142,
            "max" : [
                1.129445195198059,
                15.001975059509277,
                0.45951786637306213
            ],
            "min" : [
                -0.08109056949615479,
                -15.001975059509277,
                -1.4595216512680054
            ],
            "type" : "VEC3"
        },
        {
            "bufferView" : 9,
            "componentType" : 5126,
            "count" : 142,
            "type" : "VEC3"
        },
        {
            "bufferView" : 10,
            "componentType" : 5126,
            "count" : 142,
            "type" : "VEC2"
        },
        {
            "bufferView" : 11,
            "componentType" : 5123,
            "count" : 348,
            "type" : "SCALAR"
        },
        {
            "bufferView" : 12,
            "componentType" : 5126,
            "count" : 181,
            "max" : [
                1,
                -0.6590249538421631,
                1.9922099113464355
            ],
            "min" : [
                -1,
                -2.659024477005005,
                -0.0077901496551930904
            ],
            "type" : "VEC3"
        },
        {
            "bufferView" : 13,
            "componentType" : 5126,
            "count" : 181,
            "type" : "VEC3"
        },
        {
            "bufferView" : 14,
            "componentType" : 5126,
            "count" : 181,
            "type" : "VEC2"
        },
        {
            "bufferView" : 15,
            "componentType" : 5123,
            "count" : 588,
            "type" : "SCALAR"
        },
        {
            "bufferView" : 16,
            "componentType" : 5126,
            "count" : 3085,
            "max" : [
                0.06217244267463684,
                0.7656209468841553,
                0.7601197957992554
            ],
            "min" : [
                -1.1812763214111328,
                -0.7656209468841553,
                -0.10271888971328735
            ],
            "type" : "VEC3"
        },
        {
            "bufferView" : 17,
            "componentType" : 5126,
            "count" : 3085,
            "type" : "VEC3"
        },
        {
            "bufferView" : 18,
            "componentType" : 5126,
            "count" : 3085,
            "type" : "VEC2"
        },
        {
            "bufferView" : 19,
            "componentType" : 5123,
            "count" : 10152,
            "type" : "SCALAR"
        },
        {
            "bufferView" : 20,
            "componentType" : 5126,
            "count" : 96,
            "max" : [
                0.3242427110671997,
                -1,
                0.9163352847099304
            ],
            "min" : [
                -0.3242427110671997,
                -1.0099999904632568,
                0.3282929062843323
            ],
            "type" : "VEC3"
        },
        {
            "bufferView" : 21,
            "componentType" : 5126,
            "count" : 96,
            "type" : "VEC3"
        },
        {
            "bufferView" : 22,
            "componentType" : 5126,
            "count" : 96,
            "type" : "VEC2"
        },
        {
            "bufferView" : 23,
            "componentType" : 5123,
            "count" : 180,
            "type" : "SCALAR"
        },
        {
            "bufferView" : 24,
            "componentType" : 5126,
            "count" : 436,
            "max" : [
                1,
                1,
                1
            ],
            "min" : [
                -1,
                -1,
                -1.0026894807815552
            ],
            "type" : "VEC3"
        },
        {
            "bufferView" : 25,
            "componentType" : 5126,
            "count" : 436,
            "type" : "VEC3"
        },
        {
            "bufferView" : 26,
            "componentType" : 5126,
            "count" : 436,
            "type" : "VEC2"
        },
        {
            "bufferView" : 27,
            "componentType" : 5123,
            "count" : 1476,
            "type" : "SCALAR"
        },
        {
            "bufferView" : 28,
            "componentType" : 5126,
            "count" : 21,
            "max" : [
                0.8333333333333334
            ],
            "min" : [
                0
            ],
            "type" : "SCALAR"
        },
        {
            "bufferView" : 29,
            "componentType" : 5126,
            "count" : 21,
            "type" : "VEC4"
        },
        {
            "bufferView" : 30,
            "componentType" : 5126,
            "count" : 25,
            "max" : [
                1
            ],
            "min" : [
                0
            ],
            "type" : "SCALAR"
        },
        {
            "bufferView" : 31,
            "componentType" : 5126,
            "count" : 25,
            "type" : "VEC4"
        }
    ],
    "bufferViews" : [
        {
            "buffer" : 0,
            "byteLength" : 95916,
            "byteOffset" : 0
        },
        {
            "buffer" : 0,
            "byteLength" : 95916,
            "byteOffset" : 95916
        },
        {
            "buffer" : 0,
            "byteLength" : 63944,
            "byteOffset" : 191832
        },
        {
            "buffer" : 0,
            "byteLength" : 16158,
            "byteOffset" : 255776
        },
        {
            "buffer" : 0,
            "byteLength" : 1152,
            "byteOffset" : 271936
        },
        {
            "buffer" : 0,
            "byteLength" : 1152,
            "byteOffset" : 273088
        },
        {
            "buffer" : 0,
            "byteLength" : 768,
            "byteOffset" : 274240
        },
        {
            "buffer" : 0,
            "byteLength" : 360,
            "byteOffset" : 275008
        },
        {
            "buffer" : 0,
            "byteLength" : 1704,
            "byteOffset" : 275368
        },
        {
            "buffer" : 0,
            "byteLength" : 1704,
            "byteOffset" : 277072
        },
        {
            "buffer" : 0,
            "byteLength" : 1136,
            "byteOffset" : 278776
        },
        {
            "buffer" : 0,
            "byteLength" : 696,
            "byteOffset" : 279912
        },
        {
            "buffer" : 0,
            "byteLength" : 2172,
            "byteOffset" : 280608
        },
        {
            "buffer" : 0,
            "byteLength" : 2172,
            "byteOffset" : 282780
        },
        {
            "buffer" : 0,
            "byteLength" : 1448,
            "byteOffset" : 284952
        },
        {
            "buffer" : 0,
            "byteLength" : 1176,
            "byteOffset" : 286400
        },
        {
            "buffer" : 0,
            "byteLength" : 37020,
            "byteOffset" : 287576
        },
        {
            "buffer" : 0,
            "byteLength" : 37020,
            "byteOffset" : 324596
        },
        {
            "buffer" : 0,
            "byteLength" : 24680,
            "byteOffset" : 361616
        },
        {
            "buffer" : 0,
            "byteLength" : 20304,
            "byteOffset" : 386296
        },
        {
            "buffer" : 0,
            "byteLength" : 1152,
            "byteOffset" : 406600
        },
        {
            "buffer" : 0,
            "byteLength" : 1152,
            "byteOffset" : 407752
        },
        {
            "buffer" : 0,
            "byteLength" : 768,
            "byteOffset" : 408904
        },
        {
            "buffer" : 0,
            "byteLength" : 360,
            "byteOffset" : 409672
        },
        {
            "buffer" : 0,
            "byteLength" : 5232,
            "byteOffset" : 410032
        },
        {
            "buffer" : 0,
            "byteLength" : 5232,
            "byteOffset" : 415264
        },
        {
            "buffer" : 0,
            "byteLength" : 3488,
            "byteOffset" : 420496
        },
        {
            "buffer" : 0,
            "byteLength" : 2952,
            "byteOffset" : 423984
        },
        {
            "buffer" : 0,
            "byteLength" : 84,
            "byteOffset" : 426936
        },
        {
            "buffer" : 0,
            "byteLength" : 336,
            "byteOffset" : 427020
        },
        {
            "buffer" : 0,
            "byteLength" : 100,
            "byteOffset" : 427356
        },
        {
            "buffer" : 0,
            "byteLength" : 400,
            "byteOffset" : 427456
        }
    ],
    "buffers" : [
        {
            "byteLength" : 427856,
            "uri" : "laptop-pop.bin"
        }
    ]
}
