{
    "asset" : {
        "generator" : "Khronos glTF Blender I/O v1.7.33",
        "version" : "2.0"
    },
    "scene" : 0,
    "scenes" : [
        {
            "name" : "Scene",
            "nodes" : [
                3
            ]
        }
    ],
    "nodes" : [
        {
            "mesh" : 0,
            "name" : "five",
            "rotation" : [
                0.7071068286895752,
                0,
                0,
                0.7071068286895752
            ],
            "translation" : [
                0,
                0,
                0.13285790383815765
            ]
        },
        {
            "mesh" : 1,
            "name" : "highlight.001",
            "rotation" : [
                0.7071068286895752,
                0,
                0,
                0.7071068286895752
            ],
            "scale" : [
                1,
                1,
                1.6991227865219116
            ],
            "translation" : [
                1.0024160146713257,
                0,
                0.05194193869829178
            ]
        },
        {
            "mesh" : 2,
            "name" : "outside.001",
            "rotation" : [
                0.7071068286895752,
                0,
                0,
                0.7071068286895752
            ],
            "scale" : [
                1,
                0.8213325142860413,
                1
            ]
        },
        {
            "children" : [
                0,
                1,
                2
            ],
            "name" : "wrapper-html",
            "translation" : [
                -0.04328203201293945,
                -0.049445152282714844,
                -0.5341416001319885
            ]
        }
    ],
    "materials" : [
        {
            "doubleSided" : true,
            "name" : "text",
            "pbrMetallicRoughness" : {}
        },
        {
            "doubleSided" : true,
            "name" : "Material.003",
            "pbrMetallicRoughness" : {}
        },
        {
            "doubleSided" : true,
            "name" : "Material.001",
            "pbrMetallicRoughness" : {}
        }
    ],
    "meshes" : [
        {
            "name" : "Plane.001",
            "primitives" : [
                {
                    "attributes" : {
                        "POSITION" : 0,
                        "NORMAL" : 1,
                        "TEXCOORD_0" : 2
                    },
                    "indices" : 3,
                    "material" : 0
                }
            ]
        },
        {
            "name" : "Plane.002",
            "primitives" : [
                {
                    "attributes" : {
                        "POSITION" : 4,
                        "NORMAL" : 5,
                        "TEXCOORD_0" : 6
                    },
                    "indices" : 7,
                    "material" : 1
                }
            ]
        },
        {
            "name" : "Plane",
            "primitives" : [
                {
                    "attributes" : {
                        "POSITION" : 8,
                        "NORMAL" : 9,
                        "TEXCOORD_0" : 10
                    },
                    "indices" : 11,
                    "material" : 2
                }
            ]
        }
    ],
    "accessors" : [
        {
            "bufferView" : 0,
            "componentType" : 5126,
            "count" : 156,
            "max" : [
                1.112259864807129,
                0.010000025853514671,
                1.2568902969360352
            ],
            "min" : [
                -1.112259864807129,
                -0.04483722895383835,
                -1.2568902969360352
            ],
            "type" : "VEC3"
        },
        {
            "bufferView" : 1,
            "componentType" : 5126,
            "count" : 156,
            "type" : "VEC3"
        },
        {
            "bufferView" : 2,
            "componentType" : 5126,
            "count" : 156,
            "type" : "VEC2"
        },
        {
            "bufferView" : 3,
            "componentType" : 5123,
            "count" : 324,
            "type" : "SCALAR"
        },
        {
            "bufferView" : 4,
            "componentType" : 5126,
            "count" : 24,
            "max" : [
                0.4487161636352539,
                0.022338375449180603,
                1
            ],
            "min" : [
                -1,
                -0.08025990426540375,
                -1
            ],
            "type" : "VEC3"
        },
        {
            "bufferView" : 5,
            "componentType" : 5126,
            "count" : 24,
            "type" : "VEC3"
        },
        {
            "bufferView" : 6,
            "componentType" : 5126,
            "count" : 24,
            "type" : "VEC2"
        },
        {
            "bufferView" : 7,
            "componentType" : 5123,
            "count" : 36,
            "type" : "SCALAR"
        },
        {
            "bufferView" : 8,
            "componentType" : 5126,
            "count" : 66,
            "max" : [
                1.7809240818023682,
                7.698923809584812e-08,
                2.029834747314453
            ],
            "min" : [
                -1.7809240818023682,
                -0.18262998759746552,
                -1.9992104768753052
            ],
            "type" : "VEC3"
        },
        {
            "bufferView" : 9,
            "componentType" : 5126,
            "count" : 66,
            "type" : "VEC3"
        },
        {
            "bufferView" : 10,
            "componentType" : 5126,
            "count" : 66,
            "type" : "VEC2"
        },
        {
            "bufferView" : 11,
            "componentType" : 5123,
            "count" : 108,
            "type" : "SCALAR"
        }
    ],
    "bufferViews" : [
        {
            "buffer" : 0,
            "byteLength" : 1872,
            "byteOffset" : 0
        },
        {
            "buffer" : 0,
            "byteLength" : 1872,
            "byteOffset" : 1872
        },
        {
            "buffer" : 0,
            "byteLength" : 1248,
            "byteOffset" : 3744
        },
        {
            "buffer" : 0,
            "byteLength" : 648,
            "byteOffset" : 4992
        },
        {
            "buffer" : 0,
            "byteLength" : 288,
            "byteOffset" : 5640
        },
        {
            "buffer" : 0,
            "byteLength" : 288,
            "byteOffset" : 5928
        },
        {
            "buffer" : 0,
            "byteLength" : 192,
            "byteOffset" : 6216
        },
        {
            "buffer" : 0,
            "byteLength" : 72,
            "byteOffset" : 6408
        },
        {
            "buffer" : 0,
            "byteLength" : 792,
            "byteOffset" : 6480
        },
        {
            "buffer" : 0,
            "byteLength" : 792,
            "byteOffset" : 7272
        },
        {
            "buffer" : 0,
            "byteLength" : 528,
            "byteOffset" : 8064
        },
        {
            "buffer" : 0,
            "byteLength" : 216,
            "byteOffset" : 8592
        }
    ],
    "buffers" : [
        {
            "byteLength" : 8808,
            "uri" : "logo-html-5.bin"
        }
    ]
}
