<svg width="78" height="58" viewBox="0 0 78 58" fill="none" xmlns="http://www.w3.org/2000/svg">
<path d="M70.6875 0H7.3125C3.19922 0 0 3.32292 0 7.25V50.75C0 54.8281 3.19922 58 7.3125 58H70.6875C74.6484 58 78 54.8281 78 50.75V7.25C78 3.32292 74.6484 0 70.6875 0ZM69.7734 50.75H8.22656C7.61719 50.75 7.3125 50.4479 7.3125 49.8438V8.15625C7.3125 7.70313 7.61719 7.25 8.22656 7.25H69.7734C70.2305 7.25 70.6875 7.70313 70.6875 8.15625V49.8438C70.6875 50.4479 70.2305 50.75 69.7734 50.75ZM19.5 13.2917C15.9961 13.2917 13.4062 16.0104 13.4062 19.3333C13.4062 22.8073 15.9961 25.375 19.5 25.375C22.8516 25.375 25.5938 22.8073 25.5938 19.3333C25.5938 16.0104 22.8516 13.2917 19.5 13.2917ZM14.625 43.5H63.375V31.4167L49.9688 18.276C49.207 17.5208 48.1406 17.5208 47.3789 18.276L29.25 36.25L23.1562 30.3594C22.3945 29.6042 21.3281 29.6042 20.5664 30.3594L14.625 36.25V43.5Z" fill="#2D3748"/>
</svg>
