<svg width="191" height="72" viewBox="0 0 191 72" fill="none" xmlns="http://www.w3.org/2000/svg">
<path d="M23.765 35.6028L40.5698 52.4076C41.0162 52.854 40.8422 53.6148 40.2446 53.8212L35.0582 55.62C34.7486 55.728 34.4042 55.6488 34.1726 55.416L21.251 42.4908C21.0422 42.282 20.9558 41.982 21.0218 41.694L22.325 36.0156C22.475 35.3604 23.2886 35.1264 23.765 35.6016V35.6028Z" fill="#718096"/>
<path d="M50.237 46.0428L49.5542 49.0104C49.4882 49.2972 49.2794 49.53 49.001 49.6272L45.9914 50.6736C45.6818 50.7816 45.3374 50.7024 45.1046 50.4708L21.5102 26.8764C21.3014 26.6676 21.215 26.3664 21.281 26.0796L22.0658 22.6596C22.1318 22.3728 22.3406 22.1388 22.619 22.0428L25.217 21.1416C25.5266 21.0336 25.871 21.1128 26.1026 21.3456L50.0054 45.2484C50.2142 45.4572 50.3006 45.7584 50.2346 46.0452L50.237 46.0428Z" fill="#718096"/>
<path d="M50.5765 29.9724L49.1677 36.1008C49.0165 36.756 48.2041 36.99 47.7277 36.5148L30.6181 19.4052C30.1717 18.9588 30.3457 18.1992 30.9421 17.9916L36.5365 16.0476C36.8461 15.9396 37.1905 16.0188 37.4221 16.2504L50.3473 29.1756C50.5561 29.3844 50.6425 29.6856 50.5765 29.9724Z" fill="#718096"/>
<path d="M77.6932 33.7827C77.6591 33.4389 77.5128 33.1719 77.2542 32.9815C76.9957 32.7912 76.6449 32.696 76.2017 32.696C75.9005 32.696 75.6463 32.7386 75.4389 32.8239C75.2315 32.9062 75.0724 33.0213 74.9616 33.169C74.8537 33.3168 74.7997 33.4844 74.7997 33.6719C74.794 33.8281 74.8267 33.9645 74.8977 34.081C74.9716 34.1974 75.0724 34.2983 75.2003 34.3835C75.3281 34.4659 75.4758 34.5384 75.6434 34.6009C75.8111 34.6605 75.99 34.7116 76.1804 34.7543L76.9645 34.9418C77.3451 35.027 77.6946 35.1406 78.0128 35.2827C78.3309 35.4247 78.6065 35.5994 78.8395 35.8068C79.0724 36.0142 79.2528 36.2585 79.3807 36.5398C79.5113 36.821 79.5781 37.1435 79.5809 37.5071C79.5781 38.0412 79.4417 38.5043 79.1718 38.8963C78.9048 39.2855 78.5184 39.5881 78.0128 39.804C77.5099 40.017 76.9034 40.1236 76.1932 40.1236C75.4886 40.1236 74.875 40.0156 74.3522 39.7997C73.8324 39.5838 73.4261 39.2642 73.1335 38.8409C72.8437 38.4148 72.6917 37.8878 72.6775 37.2599H74.463C74.4829 37.5526 74.5667 37.7969 74.7145 37.9929C74.865 38.1861 75.0653 38.3324 75.3153 38.4318C75.5682 38.5284 75.8537 38.5767 76.1718 38.5767C76.4843 38.5767 76.7557 38.5312 76.9858 38.4403C77.2187 38.3494 77.3991 38.223 77.527 38.0611C77.6548 37.8991 77.7187 37.7131 77.7187 37.5028C77.7187 37.3068 77.6605 37.142 77.544 37.0085C77.4304 36.875 77.2628 36.7614 77.0412 36.6676C76.8224 36.5739 76.5539 36.4886 76.2358 36.4119L75.2855 36.1733C74.5497 35.9943 73.9687 35.7145 73.5426 35.3338C73.1164 34.9531 72.9048 34.4403 72.9076 33.7955C72.9048 33.267 73.0454 32.8054 73.3295 32.4105C73.6164 32.0156 74.0099 31.7074 74.5099 31.4858C75.0099 31.2642 75.5781 31.1534 76.2145 31.1534C76.8622 31.1534 77.4275 31.2642 77.9105 31.4858C78.3963 31.7074 78.7741 32.0156 79.044 32.4105C79.3139 32.8054 79.4531 33.2628 79.4616 33.7827H77.6932ZM84.9854 37.2131V33.4545H86.8008V40H85.0579V38.8111H84.9897C84.8419 39.1946 84.5962 39.5028 84.2525 39.7358C83.9115 39.9687 83.4954 40.0852 83.0039 40.0852C82.5664 40.0852 82.1814 39.9858 81.849 39.7869C81.5167 39.5881 81.2567 39.3054 81.0692 38.9389C80.8846 38.5724 80.7908 38.1335 80.788 37.6222V33.4545H82.6033V37.2983C82.6062 37.6847 82.7098 37.9901 82.9144 38.2145C83.1189 38.4389 83.3931 38.5511 83.7368 38.5511C83.9556 38.5511 84.1601 38.5014 84.3505 38.402C84.5408 38.2997 84.6942 38.1491 84.8107 37.9503C84.93 37.7514 84.9883 37.5057 84.9854 37.2131ZM91.2358 40.1278C90.5625 40.1278 89.9829 39.9915 89.4971 39.7188C89.0142 39.4432 88.642 39.054 88.3807 38.5511C88.1193 38.0455 87.9886 37.4474 87.9886 36.7571C87.9886 36.0838 88.1193 35.4929 88.3807 34.9844C88.642 34.4759 89.0099 34.0795 89.4843 33.7955C89.9616 33.5114 90.5213 33.3693 91.1633 33.3693C91.5951 33.3693 91.9971 33.4389 92.3693 33.5781C92.7443 33.7145 93.071 33.9205 93.3494 34.196C93.6307 34.4716 93.8494 34.8182 94.0057 35.2358C94.1619 35.6506 94.24 36.1364 94.24 36.6932V37.1918H88.713V36.0668H92.5312C92.5312 35.8054 92.4744 35.5739 92.3608 35.3722C92.2471 35.1705 92.0895 35.0128 91.8878 34.8991C91.6889 34.7827 91.4574 34.7244 91.1932 34.7244C90.9176 34.7244 90.6733 34.7884 90.4602 34.9162C90.25 35.0412 90.0852 35.2102 89.9659 35.4233C89.8466 35.6335 89.7855 35.8679 89.7826 36.1264V37.196C89.7826 37.5199 89.8423 37.7997 89.9616 38.0355C90.0838 38.2713 90.2557 38.4531 90.4772 38.581C90.6988 38.7088 90.9616 38.7727 91.2656 38.7727C91.4673 38.7727 91.652 38.7443 91.8196 38.6875C91.9872 38.6307 92.1307 38.5455 92.25 38.4318C92.3693 38.3182 92.4602 38.179 92.5227 38.0142L94.2017 38.125C94.1164 38.5284 93.9417 38.8807 93.6775 39.1818C93.4162 39.4801 93.0781 39.7131 92.6633 39.8807C92.2514 40.0455 91.7755 40.1278 91.2358 40.1278ZM97.24 36.2159V40H95.4247V31.2727H97.1889V34.6094H97.2656C97.4133 34.223 97.652 33.9205 97.9815 33.7017C98.3111 33.4801 98.7244 33.3693 99.2216 33.3693C99.6761 33.3693 100.072 33.4688 100.41 33.6676C100.751 33.8636 101.016 34.1463 101.203 34.5156C101.393 34.8821 101.487 35.321 101.484 35.8324V40H99.669V36.1562C99.6718 35.7528 99.5696 35.4389 99.3622 35.2145C99.1576 34.9901 98.8707 34.8778 98.5014 34.8778C98.2542 34.8778 98.0355 34.9304 97.8451 35.0355C97.6576 35.1406 97.5099 35.294 97.402 35.4957C97.2968 35.6946 97.2429 35.9347 97.24 36.2159ZM102.913 40V33.4545H104.728V40H102.913ZM103.825 32.6108C103.555 32.6108 103.323 32.5213 103.13 32.3423C102.94 32.1605 102.845 31.9432 102.845 31.6903C102.845 31.4403 102.94 31.2259 103.13 31.0469C103.323 30.8651 103.555 30.7741 103.825 30.7741C104.095 30.7741 104.325 30.8651 104.515 31.0469C104.708 31.2259 104.805 31.4403 104.805 31.6903C104.805 31.9432 104.708 32.1605 104.515 32.3423C104.325 32.5213 104.095 32.6108 103.825 32.6108ZM106.183 40V33.4545H107.942V34.5966H108.011C108.13 34.1903 108.33 33.8835 108.611 33.6761C108.893 33.4659 109.217 33.3608 109.583 33.3608C109.674 33.3608 109.772 33.3665 109.877 33.3778C109.982 33.3892 110.075 33.4048 110.154 33.4247V35.0355C110.069 35.0099 109.951 34.9872 109.8 34.9673C109.65 34.9474 109.512 34.9375 109.387 34.9375C109.12 34.9375 108.881 34.9957 108.671 35.1122C108.464 35.2259 108.299 35.3849 108.177 35.5895C108.058 35.794 107.998 36.0298 107.998 36.2969V40H106.183ZM113.745 40.1278C113.083 40.1278 112.511 39.9872 112.028 39.706C111.548 39.4219 111.177 39.027 110.916 38.5213C110.654 38.0128 110.524 37.4233 110.524 36.7528C110.524 36.0767 110.654 35.4858 110.916 34.9801C111.177 34.4716 111.548 34.0767 112.028 33.7955C112.511 33.5114 113.083 33.3693 113.745 33.3693C114.407 33.3693 114.978 33.5114 115.458 33.7955C115.941 34.0767 116.314 34.4716 116.575 34.9801C116.836 35.4858 116.967 36.0767 116.967 36.7528C116.967 37.4233 116.836 38.0128 116.575 38.5213C116.314 39.027 115.941 39.4219 115.458 39.706C114.978 39.9872 114.407 40.1278 113.745 40.1278ZM113.754 38.7216C114.055 38.7216 114.306 38.6364 114.508 38.4659C114.71 38.2926 114.862 38.0568 114.964 37.7585C115.069 37.4602 115.122 37.1207 115.122 36.7401C115.122 36.3594 115.069 36.0199 114.964 35.7216C114.862 35.4233 114.71 35.1875 114.508 35.0142C114.306 34.8409 114.055 34.7543 113.754 34.7543C113.45 34.7543 113.194 34.8409 112.987 35.0142C112.782 35.1875 112.627 35.4233 112.522 35.7216C112.42 36.0199 112.369 36.3594 112.369 36.7401C112.369 37.1207 112.42 37.4602 112.522 37.7585C112.627 38.0568 112.782 38.2926 112.987 38.4659C113.194 38.6364 113.45 38.7216 113.754 38.7216ZM119.669 31.2727V32.1932C119.669 32.4545 119.618 32.7216 119.515 32.9943C119.416 33.2642 119.282 33.5199 119.115 33.7614C118.947 34 118.764 34.2031 118.565 34.3707L117.764 33.8977C117.906 33.6733 118.031 33.4247 118.139 33.152C118.25 32.8793 118.305 32.5625 118.305 32.2017V31.2727H119.669ZM125.504 35.321L123.842 35.4233C123.813 35.2812 123.752 35.1534 123.658 35.0398C123.565 34.9233 123.441 34.831 123.288 34.7628C123.137 34.6918 122.957 34.6562 122.746 34.6562C122.465 34.6562 122.228 34.7159 122.035 34.8352C121.842 34.9517 121.745 35.108 121.745 35.304C121.745 35.4602 121.808 35.5923 121.933 35.7003C122.058 35.8082 122.272 35.8949 122.576 35.9602L123.761 36.1989C124.397 36.3295 124.871 36.5398 125.184 36.8295C125.496 37.1193 125.653 37.5 125.653 37.9716C125.653 38.4006 125.526 38.777 125.273 39.1009C125.023 39.4247 124.68 39.6776 124.242 39.8594C123.808 40.0384 123.306 40.1278 122.738 40.1278C121.871 40.1278 121.181 39.9474 120.667 39.5866C120.156 39.223 119.856 38.7287 119.768 38.1037L121.553 38.0099C121.607 38.2741 121.738 38.4759 121.945 38.6151C122.153 38.7514 122.418 38.8196 122.742 38.8196C123.06 38.8196 123.316 38.7585 123.509 38.6364C123.705 38.5114 123.805 38.3509 123.808 38.1548C123.805 37.9901 123.735 37.8551 123.599 37.75C123.462 37.642 123.252 37.5597 122.968 37.5028L121.834 37.277C121.195 37.1491 120.719 36.9276 120.407 36.6122C120.097 36.2969 119.942 35.8949 119.942 35.4062C119.942 34.9858 120.056 34.6236 120.283 34.3196C120.513 34.0156 120.836 33.7812 121.251 33.6165C121.668 33.4517 122.157 33.3693 122.717 33.3693C123.543 33.3693 124.194 33.544 124.668 33.8935C125.146 34.2429 125.424 34.7187 125.504 35.321ZM129.607 40V31.2727H133.05C133.712 31.2727 134.276 31.3991 134.742 31.652C135.208 31.902 135.563 32.25 135.808 32.696C136.055 33.1392 136.178 33.6506 136.178 34.2301C136.178 34.8097 136.053 35.321 135.803 35.7642C135.553 36.2074 135.191 36.5526 134.717 36.7997C134.245 37.0469 133.674 37.1705 133.004 37.1705H130.809V35.6918H132.705C133.06 35.6918 133.353 35.6307 133.583 35.5085C133.816 35.3835 133.989 35.2116 134.103 34.9929C134.219 34.7713 134.278 34.517 134.278 34.2301C134.278 33.9403 134.219 33.6875 134.103 33.4716C133.989 33.2528 133.816 33.0838 133.583 32.9645C133.35 32.8423 133.055 32.7812 132.697 32.7812H131.452V40H129.607ZM140.195 40.1278C139.533 40.1278 138.96 39.9872 138.477 39.706C137.997 39.4219 137.626 39.027 137.365 38.5213C137.104 38.0128 136.973 37.4233 136.973 36.7528C136.973 36.0767 137.104 35.4858 137.365 34.9801C137.626 34.4716 137.997 34.0767 138.477 33.7955C138.96 33.5114 139.533 33.3693 140.195 33.3693C140.857 33.3693 141.428 33.5114 141.908 33.7955C142.391 34.0767 142.763 34.4716 143.024 34.9801C143.285 35.4858 143.416 36.0767 143.416 36.7528C143.416 37.4233 143.285 38.0128 143.024 38.5213C142.763 39.027 142.391 39.4219 141.908 39.706C141.428 39.9872 140.857 40.1278 140.195 40.1278ZM140.203 38.7216C140.504 38.7216 140.756 38.6364 140.957 38.4659C141.159 38.2926 141.311 38.0568 141.413 37.7585C141.518 37.4602 141.571 37.1207 141.571 36.7401C141.571 36.3594 141.518 36.0199 141.413 35.7216C141.311 35.4233 141.159 35.1875 140.957 35.0142C140.756 34.8409 140.504 34.7543 140.203 34.7543C139.899 34.7543 139.643 34.8409 139.436 35.0142C139.232 35.1875 139.077 35.4233 138.972 35.7216C138.869 36.0199 138.818 36.3594 138.818 36.7401C138.818 37.1207 138.869 37.4602 138.972 37.7585C139.077 38.0568 139.232 38.2926 139.436 38.4659C139.643 38.6364 139.899 38.7216 140.203 38.7216ZM144.597 40V33.4545H146.357V34.5966H146.425C146.544 34.1903 146.744 33.8835 147.026 33.6761C147.307 33.4659 147.631 33.3608 147.997 33.3608C148.088 33.3608 148.186 33.3665 148.291 33.3778C148.396 33.3892 148.489 33.4048 148.568 33.4247V35.0355C148.483 35.0099 148.365 34.9872 148.214 34.9673C148.064 34.9474 147.926 34.9375 147.801 34.9375C147.534 34.9375 147.295 34.9957 147.085 35.1122C146.878 35.2259 146.713 35.3849 146.591 35.5895C146.472 35.794 146.412 36.0298 146.412 36.2969V40H144.597ZM153.316 33.4545V34.8182H149.375V33.4545H153.316ZM150.27 31.8864H152.085V37.9886C152.085 38.1562 152.11 38.2869 152.162 38.3807C152.213 38.4716 152.284 38.5355 152.375 38.5724C152.468 38.6094 152.576 38.6278 152.698 38.6278C152.784 38.6278 152.869 38.6207 152.954 38.6065C153.039 38.5895 153.105 38.5767 153.15 38.5682L153.436 39.919C153.345 39.9474 153.217 39.9801 153.052 40.017C152.887 40.0568 152.687 40.081 152.451 40.0895C152.014 40.1065 151.63 40.0483 151.301 39.9148C150.974 39.7812 150.72 39.5739 150.538 39.2926C150.356 39.0114 150.267 38.6562 150.27 38.2273V31.8864ZM158.019 33.4545V34.8182H153.979V33.4545H158.019ZM154.904 40V32.9815C154.904 32.5071 154.996 32.1136 155.181 31.8011C155.368 31.4886 155.624 31.2543 155.948 31.098C156.272 30.9418 156.64 30.8636 157.051 30.8636C157.33 30.8636 157.584 30.8849 157.814 30.9276C158.047 30.9702 158.22 31.0085 158.334 31.0426L158.01 32.4062C157.939 32.3835 157.851 32.3622 157.746 32.3423C157.644 32.3224 157.539 32.3125 157.431 32.3125C157.164 32.3125 156.978 32.375 156.872 32.5C156.767 32.6222 156.715 32.794 156.715 33.0156V40H154.904ZM161.851 40.1278C161.189 40.1278 160.616 39.9872 160.133 39.706C159.653 39.4219 159.283 39.027 159.021 38.5213C158.76 38.0128 158.629 37.4233 158.629 36.7528C158.629 36.0767 158.76 35.4858 159.021 34.9801C159.283 34.4716 159.653 34.0767 160.133 33.7955C160.616 33.5114 161.189 33.3693 161.851 33.3693C162.513 33.3693 163.084 33.5114 163.564 33.7955C164.047 34.0767 164.419 34.4716 164.68 34.9801C164.942 35.4858 165.072 36.0767 165.072 36.7528C165.072 37.4233 164.942 38.0128 164.68 38.5213C164.419 39.027 164.047 39.4219 163.564 39.706C163.084 39.9872 162.513 40.1278 161.851 40.1278ZM161.859 38.7216C162.16 38.7216 162.412 38.6364 162.614 38.4659C162.815 38.2926 162.967 38.0568 163.07 37.7585C163.175 37.4602 163.227 37.1207 163.227 36.7401C163.227 36.3594 163.175 36.0199 163.07 35.7216C162.967 35.4233 162.815 35.1875 162.614 35.0142C162.412 34.8409 162.16 34.7543 161.859 34.7543C161.555 34.7543 161.3 34.8409 161.092 35.0142C160.888 35.1875 160.733 35.4233 160.628 35.7216C160.526 36.0199 160.474 36.3594 160.474 36.7401C160.474 37.1207 160.526 37.4602 160.628 37.7585C160.733 38.0568 160.888 38.2926 161.092 38.4659C161.3 38.6364 161.555 38.7216 161.859 38.7216ZM168.068 31.2727V40H166.253V31.2727H168.068ZM169.522 40V33.4545H171.338V40H169.522ZM170.434 32.6108C170.164 32.6108 169.933 32.5213 169.74 32.3423C169.549 32.1605 169.454 31.9432 169.454 31.6903C169.454 31.4403 169.549 31.2259 169.74 31.0469C169.933 30.8651 170.164 30.7741 170.434 30.7741C170.704 30.7741 170.934 30.8651 171.125 31.0469C171.318 31.2259 171.414 31.4403 171.414 31.6903C171.414 31.9432 171.318 32.1605 171.125 32.3423C170.934 32.5213 170.704 32.6108 170.434 32.6108ZM175.749 40.1278C175.087 40.1278 174.515 39.9872 174.032 39.706C173.552 39.4219 173.181 39.027 172.92 38.5213C172.658 38.0128 172.528 37.4233 172.528 36.7528C172.528 36.0767 172.658 35.4858 172.92 34.9801C173.181 34.4716 173.552 34.0767 174.032 33.7955C174.515 33.5114 175.087 33.3693 175.749 33.3693C176.411 33.3693 176.982 33.5114 177.462 33.7955C177.945 34.0767 178.317 34.4716 178.579 34.9801C178.84 35.4858 178.971 36.0767 178.971 36.7528C178.971 37.4233 178.84 38.0128 178.579 38.5213C178.317 39.027 177.945 39.4219 177.462 39.706C176.982 39.9872 176.411 40.1278 175.749 40.1278ZM175.758 38.7216C176.059 38.7216 176.31 38.6364 176.512 38.4659C176.714 38.2926 176.866 38.0568 176.968 37.7585C177.073 37.4602 177.126 37.1207 177.126 36.7401C177.126 36.3594 177.073 36.0199 176.968 35.7216C176.866 35.4233 176.714 35.1875 176.512 35.0142C176.31 34.8409 176.059 34.7543 175.758 34.7543C175.454 34.7543 175.198 34.8409 174.991 35.0142C174.786 35.1875 174.631 35.4233 174.526 35.7216C174.424 36.0199 174.373 36.3594 174.373 36.7401C174.373 37.1207 174.424 37.4602 174.526 37.7585C174.631 38.0568 174.786 38.2926 174.991 38.4659C175.198 38.6364 175.454 38.7216 175.758 38.7216Z" fill="#718096"/>
</svg>
