<svg width="72" height="72" viewBox="0 0 72 72" fill="none" xmlns="http://www.w3.org/2000/svg">
<path d="M23.9652 35.7684L40.77 52.5732C41.2164 53.0196 41.0424 53.7804 40.4448 53.9868L35.2584 55.7856C34.9488 55.8936 34.6044 55.8144 34.3728 55.5816L21.4512 42.6564C21.2424 42.4476 21.156 42.1476 21.222 41.8596L22.5252 36.1812C22.6752 35.526 23.4888 35.292 23.9652 35.7672V35.7684Z" fill="#718096"/>
<path d="M50.4372 46.2084L49.7544 49.176C49.6884 49.4628 49.4796 49.6956 49.2012 49.7928L46.1916 50.8392C45.882 50.9472 45.5376 50.868 45.3048 50.6364L21.7104 27.042C21.5016 26.8332 21.4152 26.532 21.4812 26.2452L22.266 22.8252C22.332 22.5384 22.5408 22.3044 22.8192 22.2084L25.4172 21.3072C25.7268 21.1992 26.0712 21.2784 26.3028 21.5112L50.2056 45.414C50.4144 45.6228 50.5008 45.924 50.4348 46.2108L50.4372 46.2084Z" fill="#718096"/>
<path d="M50.7768 30.138L49.368 36.2664C49.2168 36.9216 48.4044 37.1556 47.928 36.6804L30.8184 19.5708C30.372 19.1244 30.546 18.3648 31.1424 18.1572L36.7368 16.2132C37.0464 16.1052 37.3908 16.1844 37.6224 16.416L50.5476 29.3412C50.7564 29.55 50.8428 29.8512 50.7768 30.138Z" fill="#718096"/>
</svg>
