<svg width="523" height="828" viewBox="0 0 523 828" fill="none" xmlns="http://www.w3.org/2000/svg">
<g clip-path="url(#clip0_985_277)">
<path d="M803.241 0.777045H11.4081C-9.17725 0.777045 5.07916 27.6913 16.1548 27.6913C27.2304 27.6913 28.8289 48.2766 38.3223 53.0233C47.832 57.77 58.9076 60.9344 57.3254 73.6086C55.7432 86.2827 66.8351 94.1939 71.5818 97.3583C76.3285 100.523 87.4204 105.269 92.1671 108.45C96.9138 111.615 115.917 114.779 122.262 119.542C128.591 124.289 142.847 121.124 146.012 129.052C149.176 136.963 201.765 159.147 211.275 171.805C220.784 184.479 246.116 195.555 258.791 193.972C271.465 192.39 350.642 205.064 356.97 220.887C363.299 236.725 429.818 244.636 429.818 244.636H804.823L803.241 0.760742V0.777045Z" fill="#4A5568"/>
<path d="M804.823 244.669V827.337H521.685C521.685 827.337 509.011 681.642 490.008 640.471C471.005 599.3 472.587 567.623 472.587 559.712C472.587 551.801 421.907 523.288 421.907 504.285C421.907 485.282 421.907 436.184 423.489 429.855C425.072 423.526 426.654 401.342 421.907 383.921C417.16 366.501 413.996 334.823 402.904 314.238C391.812 293.653 394.993 288.906 391.812 277.814C388.631 266.722 382.302 235.061 375.974 225.552C369.645 216.042 363.299 197.039 363.299 197.039L786.13 209.713L804.807 244.669H804.823Z" fill="#4A5568"/>
<g clip-path="url(#clip1_985_277)">
<path d="M388.014 272.957C388.222 274.253 388.833 276.521 386.738 276.56L385.169 276.344C384.981 276.318 384.817 276.204 384.649 276.115C384.221 275.887 383.792 275.663 383.363 275.441C382.771 275.136 382.11 274.926 381.483 274.671C381.475 274.667 381.466 274.667 381.458 274.668C381.45 274.67 381.442 274.675 381.436 274.681C381.296 274.834 381.18 275.005 381.09 275.192C380.955 275.472 380.803 275.607 380.498 275.624C380.475 275.625 380.459 275.615 380.45 275.595C380.387 275.465 380.339 275.368 380.238 275.262C378.27 273.197 377.019 270.323 375.334 268.384C374.507 267.432 374.632 266.147 373.42 265.578C373.384 265.56 373.366 265.572 373.366 265.612C373.371 266.017 373.233 267.022 372.548 266.56C372.527 266.545 372.514 266.551 372.51 266.577C372.409 267.295 372.271 268.044 371.918 268.68C371.607 269.239 371.041 269.806 370.557 270.288C370.552 270.293 370.548 270.3 370.548 270.308C370.547 270.315 370.549 270.322 370.553 270.328L370.605 270.403C371.349 271.466 372.1 272.541 373.013 273.467C373.151 273.607 373.446 273.876 373.899 274.274C375.176 275.396 376.359 276.779 377.282 278.139C378.034 279.245 378.726 280.059 379.484 281C381.225 283.163 381.785 285.902 382.584 288.484C383.172 290.382 383.885 292.23 384.725 294.028C385.216 295.081 385.994 295.926 386.561 296.963C386.82 297.436 387.074 297.913 387.323 298.393C387.779 299.272 388.487 300.042 389.117 300.83C389.773 301.649 390.303 302.506 390.709 303.403C390.784 303.569 390.849 303.777 390.905 304.028C390.909 304.048 390.922 304.058 390.942 304.059C391.716 304.083 393.599 304.283 393.892 303.515C394.079 303.025 393.761 302.427 394.135 302.018C394.697 301.405 395.304 301.973 395.551 302.516C396.061 303.634 395.891 304.848 395.134 305.789C394.529 306.54 393.71 306.86 393.475 307.832C393.302 308.546 393.148 309.054 392.662 309.631C391.763 310.699 390.729 310.582 389.768 309.714C389.202 309.203 388.725 308.619 388.338 307.961C388.326 307.942 388.31 307.937 388.29 307.946C388.227 307.974 388.17 308.008 388.12 308.048C387.816 308.286 387.519 308.284 387.229 308.04C386.634 307.541 386.279 306.862 385.761 306.296C385.095 305.569 384.168 304.756 383.503 303.792C381.837 301.374 380.211 299.264 378.522 297.033C377.722 295.975 377.178 294.743 376.429 293.557C376.018 292.906 375.558 292.258 375.241 291.549C375.154 291.356 375.05 291.07 374.927 290.692C374.545 289.509 374.154 288.452 373.753 287.519C373.541 287.026 373.084 286.638 372.602 286.211C372.237 285.886 371.953 285.518 371.752 285.104C371.516 284.621 371.281 283.987 371.004 283.542C370.018 281.952 368.105 280.703 366.497 279.822C365.986 279.542 365.642 279.34 365.466 279.216C364.506 278.542 363.761 277.631 362.876 276.869C362.168 276.26 361.673 275.887 361.402 274.97C361.401 274.967 361.4 274.965 361.398 274.963C361.396 274.961 361.394 274.959 361.391 274.958C361.389 274.957 361.386 274.956 361.383 274.956C361.38 274.956 361.378 274.957 361.375 274.958C360.695 275.296 360.013 275.631 359.329 275.963C359.211 276.021 359.029 276.092 358.785 276.176C357.128 276.744 356.391 274.957 356.009 273.733C355.402 271.788 354.481 269.699 355.785 267.877C356.119 267.41 356.541 266.969 357.05 266.554C357.069 266.538 357.069 266.523 357.051 266.507C356.156 265.731 355.426 265.144 355.321 263.851C355.248 262.944 355.344 262.095 354.906 261.164C354.134 259.524 353.391 257.816 352.679 256.039C351.268 252.521 350.36 248.852 350.599 245.06C350.672 243.899 350.782 242.642 351.073 241.464C351.078 241.444 351.071 241.432 351.052 241.428C350.651 241.336 350.51 241.086 350.23 240.893C349.63 240.48 348.805 240.499 348.139 240.248C347.376 239.962 346.812 239.495 346.32 238.812C345.056 237.051 344.724 234.793 345.344 232.724C345.963 230.661 347.791 229.142 349.797 228.567C350.188 228.454 350.596 228.399 351.021 228.401C351.785 228.403 352.757 228.793 353.461 228.433C353.822 228.249 354.266 227.94 354.675 228.227C354.719 228.259 354.771 228.33 354.823 228.374C354.844 228.392 354.858 228.388 354.865 228.362C355.14 227.321 355.326 226.647 355.422 226.339C355.538 225.966 355.65 225.688 355.758 225.504C355.935 225.205 356.127 224.903 356.251 224.586C356.462 224.047 356.629 223.477 356.75 222.873C356.893 222.162 357.382 221.967 358.016 222.267C358.037 222.277 358.051 222.271 358.057 222.248C358.167 221.818 358.249 221.432 358.469 221.042C358.473 221.036 358.478 221.03 358.485 221.026C358.492 221.022 358.499 221.02 358.507 221.02C358.514 221.019 358.522 221.021 358.529 221.024C358.536 221.028 358.542 221.033 358.546 221.039C359.017 221.717 359.34 222.403 359.669 223.155C359.676 223.174 359.689 223.188 359.707 223.198C360.286 223.513 360.723 223.976 360.563 224.678C360.507 224.922 360.437 225.099 360.352 225.209C360.118 225.515 359.923 225.729 359.884 226.072C359.724 227.469 359.809 228.516 359.915 229.771C359.994 230.71 359.468 231.502 359.572 232.427C359.574 232.446 359.583 232.462 359.598 232.475C360.337 233.101 361.198 233.651 360.558 234.707C360.392 234.98 360.093 235.254 359.844 235.499C359.829 235.514 359.821 235.532 359.82 235.553C359.812 235.911 359.742 236.258 359.61 236.592C359.602 236.613 359.604 236.634 359.615 236.654C359.801 236.983 360.055 237.361 360.143 237.722C360.175 237.854 360.193 238.064 360.196 238.353C360.206 239.381 360.286 240.404 360.367 241.429L360.37 241.465C360.381 241.606 360.355 241.757 360.345 241.905C360.343 241.926 360.352 241.941 360.372 241.949C361.525 242.429 362.497 243.173 363.474 243.936C364.644 244.849 365.872 245.749 367.15 246.504C368.391 247.237 369.771 247.67 370.789 248.743C370.804 248.758 370.819 248.759 370.836 248.744C371.485 248.167 371.974 247.696 372.614 248.585C372.627 248.603 372.643 248.607 372.663 248.599C372.723 248.571 372.778 248.539 372.83 248.501C373.806 247.781 374.522 246.81 375.334 245.922C375.772 245.442 376.474 244.737 377.44 243.806C377.455 243.792 377.462 243.774 377.462 243.753C377.469 242.952 377.633 242.025 378.141 241.435C378.535 240.978 378.614 239.843 379.362 239.909C379.783 239.945 380.255 239.996 380.543 240.311C380.557 240.326 380.573 240.329 380.591 240.319C380.913 240.131 381.23 239.936 381.542 239.732C382.041 239.406 382.497 239.24 382.827 239.882C382.836 239.899 382.85 239.909 382.869 239.912C383.269 239.97 383.797 240.523 383.417 240.911C383.403 240.924 383.405 240.936 383.421 240.946C383.854 241.214 383.963 241.569 383.748 242.012C383.739 242.03 383.743 242.044 383.761 242.053C384.419 242.399 384.011 242.988 383.644 243.37C383.45 243.573 383.209 243.86 382.919 244.233C382.612 244.628 382.144 244.839 381.793 245.197C381.356 245.642 380.832 245.957 380.223 246.142C380.202 246.148 380.193 246.162 380.195 246.183C380.29 247.276 379.353 248.591 378.705 249.39C377.306 251.111 375.899 252.827 374.485 254.538C374.476 254.55 374.478 254.559 374.492 254.566C374.963 254.774 375.374 255.102 375.726 255.551C378.19 258.695 380.396 261.763 382.181 265.255C382.647 266.167 383.192 267.509 383.804 268.639C383.814 268.658 383.829 268.663 383.848 268.655C384.511 268.383 384.746 268.641 384.85 269.297C384.854 269.32 384.865 269.325 384.884 269.312C385.536 268.87 386.075 268.383 386.142 267.563C386.169 267.219 386.202 266.876 386.239 266.534C386.306 265.923 386.603 264.874 387.183 264.588C387.779 264.292 388.25 264.91 388.549 265.334C389.773 267.066 389.011 268.563 388.302 270.331C387.965 271.171 387.869 272.047 388.014 272.957Z" fill="#4A5568"/>
</g>
</g>
<defs>
<clipPath id="clip0_985_277">
<rect width="805" height="828" fill="white" transform="matrix(-1 0 0 1 805 0)"/>
</clipPath>
<clipPath id="clip1_985_277">
<rect width="63.2248" height="102.116" fill="white" transform="translate(320 233.562) rotate(-24.842)"/>
</clipPath>
</defs>
</svg>
