<svg width="642" height="209" viewBox="0 0 642 209" fill="none" xmlns="http://www.w3.org/2000/svg">
<circle cx="7.5" cy="103.5" r="7.5" fill="#4A5568"/>
<circle cx="402.5" cy="55.5" r="7.5" fill="#4A5568"/>
<circle cx="634.5" cy="104.5" r="7.5" fill="#4A5568"/>
<circle cx="634.5" cy="7.5" r="7.5" fill="#4A5568"/>
<circle cx="402.5" cy="152.5" r="7.5" fill="#4A5568"/>
<circle cx="634.5" cy="201.5" r="7.5" fill="#4A5568"/>
<rect x="10" y="102" width="174" height="3" fill="#4A5568"/>
<rect x="222" y="54" width="174" height="3" fill="#4A5568"/>
<rect x="453" y="6" width="174" height="3" fill="#4A5568"/>
<rect x="453" y="103" width="174" height="3" fill="#4A5568"/>
<rect x="222" y="151" width="174" height="3" fill="#4A5568"/>
<rect x="453" y="103" width="174" height="3" fill="#4A5568"/>
<rect x="453" y="200" width="174" height="3" fill="#4A5568"/>
<path d="M184 103.5H199C202.314 103.5 205 100.814 205 97.5V61.5C205 58.1863 207.686 55.5 211 55.5H222" stroke="#4A5568" stroke-width="3"/>
<path d="M415 55.5H430C433.314 55.5 436 52.8137 436 49.5V13.5C436 10.1863 438.686 7.5 442 7.5H453" stroke="#4A5568" stroke-width="3"/>
<path d="M415 152.5H430C433.314 152.5 436 149.814 436 146.5V110.5C436 107.186 438.686 104.5 442 104.5H453" stroke="#4A5568" stroke-width="3"/>
<path d="M184 103.5H199.105C202.419 103.5 205.105 106.186 205.105 109.5V146.5C205.105 149.814 207.792 152.5 211.105 152.5H223" stroke="#4A5568" stroke-width="3"/>
<path d="M415 55.5H430.105C433.419 55.5 436.105 58.1863 436.105 61.5V98.5C436.105 101.814 438.792 104.5 442.105 104.5H454" stroke="#4A5568" stroke-width="3"/>
<path d="M415 152.5H430.105C433.419 152.5 436.105 155.186 436.105 158.5V195.5C436.105 198.814 438.792 201.5 442.105 201.5H454" stroke="#4A5568" stroke-width="3"/>
<path fill-rule="evenodd" clip-rule="evenodd" d="M413 55.5C413 61.299 408.299 66 402.5 66C397.928 66 394.039 63.0782 392.597 59H390.497C392.01 64.2 396.811 68 402.5 68C409.404 68 415 62.4036 415 55.5C415 48.5964 409.404 43 402.5 43C396.811 43 392.01 46.8 390.497 52H392.597C394.039 47.9218 397.928 45 402.5 45C408.299 45 413 49.701 413 55.5Z" fill="#4A5568"/>
<path fill-rule="evenodd" clip-rule="evenodd" d="M413 152.5C413 158.299 408.299 163 402.5 163C397.928 163 394.039 160.078 392.597 156H390.497C392.01 161.2 396.811 165 402.5 165C409.404 165 415 159.404 415 152.5C415 145.596 409.404 140 402.5 140C396.811 140 392.01 143.8 390.497 149H392.597C394.039 144.922 397.928 142 402.5 142C408.299 142 413 146.701 413 152.5Z" fill="#4A5568"/>
<path d="M61.7365 133.685C64.342 132.044 67.658 132.044 70.2635 133.685L90.8423 146.647C93.168 148.111 94.5788 150.667 94.5788 153.416V180.584C94.5788 183.333 93.168 185.889 90.8423 187.353L70.2635 200.315C67.658 201.956 64.342 201.956 61.7365 200.315L41.1577 187.353C38.832 185.889 37.4212 183.333 37.4212 180.584V153.416C37.4212 150.667 38.832 148.111 41.1577 146.647L61.7365 133.685Z" stroke="#4A5568" stroke-width="4"/>
<path d="M46.5 153.5L66 164.5M66 164.5V195.5M66 164.5L87.5 152" stroke="#4A5568" stroke-width="4" stroke-linecap="round"/>
<path d="M579.18 34.771C581.813 33.0825 585.187 33.0825 587.82 34.771L599.305 42.139C601.599 43.6103 602.986 46.1478 602.986 48.8726V65.1274C602.986 67.8522 601.599 70.3897 599.305 71.861L587.82 79.229C585.187 80.9175 581.813 80.9175 579.18 79.229L567.695 71.861C565.401 70.3897 564.014 67.8522 564.014 65.1274V48.8726C564.014 46.1478 565.401 43.6103 567.695 42.139L579.18 34.771Z" stroke="#4A5568" stroke-width="3"/>
<path d="M570 48L583.317 55.3333M583.317 55.3333V76M583.317 55.3333L598 47" stroke="#4A5568" stroke-width="3" stroke-linecap="round"/>
</svg>
