<svg width="1439" height="315" viewBox="0 0 1439 315" fill="none" xmlns="http://www.w3.org/2000/svg">
<path d="M603 190.5C385.4 190.5 110.333 273.167 0 314.5V53.5001C0 53.5001 188.5 9.62744 281 3.50008C673.5 -22.4998 822 107 1055.5 190.5C1242.3 257.3 1356.17 144.333 1438.5 107V190.5C1321.5 269 1210.5 297 1126 297C944.5 297 875 190.5 603 190.5Z" fill="#4A5568"/>
<path d="M1.5 181C125.5 141.834 432.8 72.5005 670 108.5C835 133.542 998 250 1117 259.5C1212.2 267.1 1370.67 193 1438 155" stroke="#2D3748" stroke-width="4" stroke-dasharray="10 10"/>
</svg>
